<svg xmlns="http://www.w3.org/2000/svg" xmlns:xlink="http://www.w3.org/1999/xlink" width="375" height="211" viewBox="0 0 375 211"><defs><style>.a{fill:#fbfbfb;}.b{fill:#2196f3;}.c{fill:#fafafa;}.d{fill:#fcbc03;}.e{fill:url(#e);}.f{fill:url(#f);}.g{fill:#bc2f9e;}.h{filter:url(#c);}.i{filter:url(#a);}</style><filter id="a" x="259.905" y="12.702" width="42.274" height="42.274" filterUnits="userSpaceOnUse"><feOffset dy="3" input="SourceAlpha"/><feGaussianBlur stdDeviation="3" result="b"/><feFlood flood-color="#2196f3" flood-opacity="0.161"/><feComposite operator="in" in2="b"/><feComposite in="SourceGraphic"/></filter><filter id="c" x="321" y="101.565" width="39.815" height="39.815" filterUnits="userSpaceOnUse"><feOffset dy="3" input="SourceAlpha"/><feGaussianBlur stdDeviation="3" result="d"/><feFlood flood-color="#fcbc03" flood-opacity="0.161"/><feComposite operator="in" in2="d"/><feComposite in="SourceGraphic"/></filter><linearGradient id="e" x1="0.097" y1="0.92" x2="0.246" y2="-0.115" gradientUnits="objectBoundingBox"><stop offset="0" stop-color="#fdd77a"/><stop offset="0.189" stop-color="#f66f2e"/><stop offset="0.424" stop-color="#d12f83"/><stop offset="0.652" stop-color="#a335b4"/><stop offset="1" stop-color="#505dce"/></linearGradient><linearGradient id="f" x1="-0.189" y1="1.692" x2="1.465" y2="-0.796" gradientUnits="objectBoundingBox"><stop offset="0" stop-color="#fdd77a"/><stop offset="0.3" stop-color="#f66f2e"/><stop offset="0.515" stop-color="#d12f83"/><stop offset="0.782" stop-color="#a335b4"/><stop offset="1" stop-color="#505dce"/></linearGradient></defs><g transform="translate(0 -684)"><rect class="a" width="375" height="211" transform="translate(0 684)"/><g transform="translate(274.314 702.702) rotate(16)"><g class="i" transform="matrix(0.96, -0.28, 0.28, 0.96, -268.84, 57.63)"><path class="b" d="M2.044,0H17.58a2.044,2.044,0,0,1,2.044,2.044V17.58a2.044,2.044,0,0,1-2.044,2.044H2.044A2.044,2.044,0,0,1,0,17.58V2.044A2.044,2.044,0,0,1,2.044,0Z" transform="translate(274.31 18.7) rotate(16)"/></g><path class="c" d="M6.95,3.271H8.586a.409.409,0,0,0,.409-.409V.409A.409.409,0,0,0,8.586,0H6.95a4.5,4.5,0,0,0-4.5,4.5V6.542H.409A.409.409,0,0,0,0,6.95V9.4a.409.409,0,0,0,.409.409H2.453v7.359H5.724V9.812H7.768a.409.409,0,0,0,.388-.28L8.973,7.08a.409.409,0,0,0-.388-.538H5.724V4.5A1.227,1.227,0,0,1,6.95,3.271Z" transform="translate(8.177 2.453)"/></g><g transform="matrix(0.966, -0.259, 0.259, 0.966, 330, 796.175)"><g transform="translate(0)"><g class="h" transform="matrix(0.97, 0.26, -0.26, 0.97, -289.72, -193.76)"><path class="d" d="M8.906,7.125v3.562h5.039A5.344,5.344,0,1,1,8.906,3.562a5.264,5.264,0,0,1,3.461,1.29l2.34-2.686A8.826,8.826,0,0,0,8.906,0a8.906,8.906,0,1,0,8.906,8.906V7.125Z" transform="matrix(0.97, -0.26, 0.26, 0.97, 330, 112.17)"/></g></g></g><g transform="translate(235.126 859.802) rotate(-25)"><path class="e" d="M569.863,244.808h-7.072a5.218,5.218,0,0,0-5.213,5.213v7.072a5.219,5.219,0,0,0,5.213,5.213h7.072a5.22,5.22,0,0,0,5.213-5.213v-7.072A5.219,5.219,0,0,0,569.863,244.808Zm3.453,12.285a3.453,3.453,0,0,1-3.453,3.453h-7.072a3.453,3.453,0,0,1-3.453-3.453v-7.072a3.452,3.452,0,0,1,3.453-3.452h7.072a3.452,3.452,0,0,1,3.453,3.452Z" transform="translate(-557.579 -244.808)"/><path class="f" d="M568.131,250.835a4.525,4.525,0,1,0,4.525,4.525A4.525,4.525,0,0,0,568.131,250.835Zm0,7.288a2.765,2.765,0,1,1,2.765-2.765A2.765,2.765,0,0,1,568.131,258.123Z" transform="translate(-559.383 -246.612)"/><path class="g" d="M576.071,249.336a1.084,1.084,0,1,0,1.084,1.084A1.083,1.083,0,0,0,576.071,249.336Z" transform="translate(-562.789 -246.163)"/></g></g></svg>