<svg xmlns="http://www.w3.org/2000/svg" xmlns:xlink="http://www.w3.org/1999/xlink" width="1920" height="531.002" viewBox="0 0 1920 531.002"><defs><style>.a{fill:none;}.b{fill:rgba(238,238,238,0.41);}.c{fill:#9be5fa;}.c,.d{opacity:0.6;}.d,.n{fill:#ff6e4e;}.e{clip-path:url(#a);}.f{fill:#38ccf5;opacity:0.5;}.g{fill:#2196f3;}.h{fill:#fafafa;}.i{fill:#fcbc03;}.j{fill:url(#f);}.k{fill:url(#g);}.l{fill:#bc2f9e;}.m,.n{stroke:none;}.o{filter:url(#d);}.p{filter:url(#b);}</style><clipPath id="a"><rect class="a" width="230" height="165"/></clipPath><filter id="b" x="1525.702" y="141.703" width="59.248" height="59.248" filterUnits="userSpaceOnUse"><feOffset dy="3" input="SourceAlpha"/><feGaussianBlur stdDeviation="3" result="c"/><feFlood flood-color="#2196f3" flood-opacity="0.161"/><feComposite operator="in" in2="c"/><feComposite in="SourceGraphic"/></filter><filter id="d" x="1650.324" y="312.736" width="55.07" height="55.07" filterUnits="userSpaceOnUse"><feOffset dy="3" input="SourceAlpha"/><feGaussianBlur stdDeviation="3" result="e"/><feFlood flood-color="#fcbc03" flood-opacity="0.161"/><feComposite operator="in" in2="e"/><feComposite in="SourceGraphic"/></filter><linearGradient id="f" x1="0.097" y1="0.92" x2="0.246" y2="-0.115" gradientUnits="objectBoundingBox"><stop offset="0" stop-color="#fdd77a"/><stop offset="0.189" stop-color="#f66f2e"/><stop offset="0.424" stop-color="#d12f83"/><stop offset="0.652" stop-color="#a335b4"/><stop offset="1" stop-color="#505dce"/></linearGradient><linearGradient id="g" x1="-0.189" y1="1.692" x2="1.465" y2="-0.796" gradientUnits="objectBoundingBox"><stop offset="0" stop-color="#fdd77a"/><stop offset="0.3" stop-color="#f66f2e"/><stop offset="0.515" stop-color="#d12f83"/><stop offset="0.782" stop-color="#a335b4"/><stop offset="1" stop-color="#505dce"/></linearGradient></defs><g transform="translate(0 -1076.999)"><path class="b" d="M0,0H1920V531H0Z" transform="translate(0 1077)"/><path class="c" d="M-5686.5,13667c-2.146,0-4.333-.024-6.5-.072v-530.855c2.172-.048,4.359-.071,6.5-.071a289.673,289.673,0,0,1,55.724,5.394,283.488,283.488,0,0,1,51.9,15.471,280.318,280.318,0,0,1,46.967,24.479,276.439,276.439,0,0,1,40.921,32.419,270.112,270.112,0,0,1,33.764,39.293,262.428,262.428,0,0,1,25.494,45.1,256.546,256.546,0,0,1,16.111,49.837A257.189,257.189,0,0,1-5410,13401.5a257.2,257.2,0,0,1-5.618,53.508,256.589,256.589,0,0,1-16.111,49.837,262.411,262.411,0,0,1-25.494,45.1,270.1,270.1,0,0,1-33.764,39.293,276.28,276.28,0,0,1-40.921,32.42,280.289,280.289,0,0,1-46.967,24.479,283.477,283.477,0,0,1-51.9,15.47A289.647,289.647,0,0,1-5686.5,13667Z" transform="translate(5693 -12059)"/><g class="d" transform="translate(7533 -12379)"><path class="m" d="M -5671.49853515625 13679.736328125 C -5690.056640625 13679.736328125 -5708.61083984375 13677.9404296875 -5726.64599609375 13674.3984375 C -5744.21630859375 13670.9443359375 -5761.49267578125 13665.794921875 -5777.99560546875 13659.0927734375 C -5794.20458984375 13652.509765625 -5809.837890625 13644.361328125 -5824.4609375 13634.875 C -5838.93408203125 13625.486328125 -5852.55224609375 13614.6982421875 -5864.93798828125 13602.8076171875 C -5877.3056640625 13590.9326171875 -5888.53857421875 13577.859375 -5898.32421875 13563.951171875 C -5908.1943359375 13549.923828125 -5916.67333984375 13534.9248046875 -5923.525390625 13519.37109375 C -5930.5 13503.541015625 -5935.857421875 13486.970703125 -5939.44873046875 13470.119140625 C -5940.228515625 13466.45703125 -5940.9345703125 13462.73046875 -5941.5556640625 13458.9990234375 L -5616.001953125 13458.9990234375 L -5616.001953125 13674.328125 C -5634.16064453125 13677.91796875 -5652.81787109375 13679.736328125 -5671.49853515625 13679.736328125 Z"/><path class="n" d="M -5671.49853515625 13676.736328125 C -5653.8408203125 13676.736328125 -5636.2060546875 13675.0947265625 -5619.001953125 13671.8515625 L -5619.001953125 13461.9990234375 L -5937.98974609375 13461.9990234375 C -5937.5341796875 13464.515625 -5937.04150390625 13467.0205078125 -5936.5146484375 13469.4931640625 C -5932.9658203125 13486.1455078125 -5927.67236328125 13502.5185546875 -5920.7802734375 13518.1611328125 C -5914.0078125 13533.5341796875 -5905.626953125 13548.359375 -5895.87060546875 13562.2255859375 C -5886.1953125 13575.9765625 -5875.08935546875 13588.90234375 -5862.8603515625 13600.6435546875 C -5850.611328125 13612.40234375 -5837.142578125 13623.0732421875 -5822.828125 13632.3583984375 C -5808.3642578125 13641.7421875 -5792.900390625 13649.8017578125 -5776.86669921875 13656.3134765625 C -5760.541015625 13662.943359375 -5743.44970703125 13668.037109375 -5726.06787109375 13671.4541015625 C -5708.22265625 13674.958984375 -5689.86279296875 13676.736328125 -5671.49853515625 13676.736328125 M -5671.49853515625 13682.736328125 C -5690.25244140625 13682.736328125 -5709.00146484375 13680.9208984375 -5727.22412109375 13677.341796875 C -5744.97900390625 13673.8515625 -5762.44091796875 13668.6474609375 -5779.12451171875 13661.8720703125 C -5795.50732421875 13655.21875 -5811.310546875 13646.982421875 -5826.09375 13637.3916015625 C -5840.72412109375 13627.9013671875 -5854.4921875 13616.994140625 -5867.015625 13604.9716796875 C -5879.52392578125 13592.9619140625 -5890.8828125 13579.7412109375 -5900.77783203125 13565.677734375 C -5910.76171875 13551.48828125 -5919.3388671875 13536.3154296875 -5926.27099609375 13520.580078125 C -5933.32763671875 13504.564453125 -5938.74853515625 13487.7978515625 -5942.3828125 13470.744140625 C -5943.41455078125 13465.900390625 -5944.3193359375 13460.939453125 -5945.0712890625 13455.9990234375 L -5613.001953125 13455.9990234375 L -5613.001953125 13676.7822265625 C -5632.11328125 13680.7333984375 -5651.7939453125 13682.736328125 -5671.49853515625 13682.736328125 Z"/></g><g class="e" transform="translate(168 1350)"><g transform="translate(-158 -154)"><circle class="f" cx="5" cy="5" r="5" transform="translate(158 154)"/></g><g transform="translate(-128 -154)"><circle class="f" cx="5" cy="5" r="5" transform="translate(158 154)"/></g><g transform="translate(-98 -154)"><circle class="f" cx="5" cy="5" r="5" transform="translate(158 154)"/></g><g transform="translate(-68 -154)"><circle class="f" cx="5" cy="5" r="5" transform="translate(158 154)"/></g><g transform="translate(-38 -154)"><circle class="f" cx="5" cy="5" r="5" transform="translate(158 154)"/></g><g transform="translate(-8 -154)"><circle class="f" cx="5" cy="5" r="5" transform="translate(158 154)"/></g><g transform="translate(22 -154)"><circle class="f" cx="5" cy="5" r="5" transform="translate(158 154)"/></g><g transform="translate(52 -154)"><circle class="f" cx="5" cy="5" r="5" transform="translate(158 154)"/></g><g transform="translate(-158 -124)"><circle class="f" cx="5" cy="5" r="5" transform="translate(158 154)"/></g><g transform="translate(-128 -124)"><circle class="f" cx="5" cy="5" r="5" transform="translate(158 154)"/></g><g transform="translate(-98 -124)"><circle class="f" cx="5" cy="5" r="5" transform="translate(158 154)"/></g><g transform="translate(-68 -124)"><circle class="f" cx="5" cy="5" r="5" transform="translate(158 154)"/></g><g transform="translate(-38 -124)"><circle class="f" cx="5" cy="5" r="5" transform="translate(158 154)"/></g><g transform="translate(-8 -124)"><circle class="f" cx="5" cy="5" r="5" transform="translate(158 154)"/></g><g transform="translate(22 -124)"><circle class="f" cx="5" cy="5" r="5" transform="translate(158 154)"/></g><g transform="translate(52 -124)"><circle class="f" cx="5" cy="5" r="5" transform="translate(158 154)"/></g><g transform="translate(-158 -94)"><circle class="f" cx="5" cy="5" r="5" transform="translate(158 154)"/></g><g transform="translate(-128 -94)"><circle class="f" cx="5" cy="5" r="5" transform="translate(158 154)"/></g><g transform="translate(-98 -94)"><circle class="f" cx="5" cy="5" r="5" transform="translate(158 154)"/></g><g transform="translate(-68 -94)"><circle class="f" cx="5" cy="5" r="5" transform="translate(158 154)"/></g><g transform="translate(-38 -94)"><circle class="f" cx="5" cy="5" r="5" transform="translate(158 154)"/></g><g transform="translate(-8 -94)"><circle class="f" cx="5" cy="5" r="5" transform="translate(158 154)"/></g><g transform="translate(22 -94)"><circle class="f" cx="5" cy="5" r="5" transform="translate(158 154)"/></g><g transform="translate(52 -94)"><circle class="f" cx="5" cy="5" r="5" transform="translate(158 154)"/></g><g transform="translate(-158 -64)"><circle class="f" cx="5" cy="5" r="5" transform="translate(158 154)"/></g><g transform="translate(-128 -64)"><circle class="f" cx="5" cy="5" r="5" transform="translate(158 154)"/></g><g transform="translate(-98 -64)"><circle class="f" cx="5" cy="5" r="5" transform="translate(158 154)"/></g><g transform="translate(-68 -64)"><circle class="f" cx="5" cy="5" r="5" transform="translate(158 154)"/></g><g transform="translate(-38 -64)"><circle class="f" cx="5" cy="5" r="5" transform="translate(158 154)"/></g><g transform="translate(-8 -64)"><circle class="f" cx="5" cy="5" r="5" transform="translate(158 154)"/></g><g transform="translate(22 -64)"><circle class="f" cx="5" cy="5" r="5" transform="translate(158 154)"/></g><g transform="translate(52 -64)"><circle class="f" cx="5" cy="5" r="5" transform="translate(158 154)"/></g><g transform="translate(-158 -34)"><circle class="f" cx="5" cy="5" r="5" transform="translate(158 154)"/></g><g transform="translate(-128 -34)"><circle class="f" cx="5" cy="5" r="5" transform="translate(158 154)"/></g><g transform="translate(-98 -34)"><circle class="f" cx="5" cy="5" r="5" transform="translate(158 154)"/></g><g transform="translate(-68 -34)"><circle class="f" cx="5" cy="5" r="5" transform="translate(158 154)"/></g><g transform="translate(-38 -34)"><circle class="f" cx="5" cy="5" r="5" transform="translate(158 154)"/></g><g transform="translate(-8 -34)"><circle class="f" cx="5" cy="5" r="5" transform="translate(158 154)"/></g><g transform="translate(22 -34)"><circle class="f" cx="5" cy="5" r="5" transform="translate(158 154)"/></g><g transform="translate(52 -34)"><circle class="f" cx="5" cy="5" r="5" transform="translate(158 154)"/></g><g transform="translate(-158 -4)"><circle class="f" cx="5" cy="5" r="5" transform="translate(158 154)"/></g><g transform="translate(-128 -4)"><circle class="f" cx="5" cy="5" r="5" transform="translate(158 154)"/></g><g transform="translate(-98 -4)"><circle class="f" cx="5" cy="5" r="5" transform="translate(158 154)"/></g><g transform="translate(-68 -4)"><circle class="f" cx="5" cy="5" r="5" transform="translate(158 154)"/></g><g transform="translate(-38 -4)"><circle class="f" cx="5" cy="5" r="5" transform="translate(158 154)"/></g><g transform="translate(-8 -4)"><circle class="f" cx="5" cy="5" r="5" transform="translate(158 154)"/></g><g transform="translate(22 -4)"><circle class="f" cx="5" cy="5" r="5" transform="translate(158 154)"/></g><g transform="translate(52 -4)"><circle class="f" cx="5" cy="5" r="5" transform="translate(158 154)"/></g></g><path class="f" d="M-5846.5,13185h-7.162a5.027,5.027,0,0,1,3.588-1.51,4.992,4.992,0,0,1,2.493.67,4.94,4.94,0,0,1,1.079.838Zm-65.571,0h-9.943a4.938,4.938,0,0,1,.643-3.028,5.016,5.016,0,0,1,4.334-2.5,5,5,0,0,1,2.5.67,5,5,0,0,1,2.47,4.858Zm-69.854,0h-4.157c-.142-.065-.284-.139-.421-.218a4.96,4.96,0,0,1-2.327-3.035,4.967,4.967,0,0,1,.5-3.795,5.017,5.017,0,0,1,4.334-2.5,4.959,4.959,0,0,1,2.5.673,4.952,4.952,0,0,1,2.33,3.031,4.953,4.953,0,0,1-.5,3.8,4.969,4.969,0,0,1-2.251,2.047Zm172.821-2.49a4.959,4.959,0,0,1-2.5-.673,4.973,4.973,0,0,1-2.33-3.032,4.965,4.965,0,0,1,.5-3.795,5.009,5.009,0,0,1,4.334-2.5,5,5,0,0,1,2.5.67,5.011,5.011,0,0,1,1.831,6.83A5.026,5.026,0,0,1-5809.1,13182.511Zm-66.96-4.02a5.005,5.005,0,0,1-2.5-.669,4.97,4.97,0,0,1-2.327-3.038,4.958,4.958,0,0,1,.5-3.792,5.016,5.016,0,0,1,4.334-2.5,5.005,5.005,0,0,1,2.5.669,5.008,5.008,0,0,1,1.831,6.831A5.017,5.017,0,0,1-5876.062,13178.491Zm-66.963-4.019a5,5,0,0,1-2.5-.67,4.986,4.986,0,0,1-2.329-3.038,4.963,4.963,0,0,1,.5-3.792,5.018,5.018,0,0,1,4.334-2.5,5,5,0,0,1,2.5.673,5.008,5.008,0,0,1,1.827,6.832A5.019,5.019,0,0,1-5943.025,13174.473Zm174.457-2.963h0a5.038,5.038,0,0,1-2.047-.652,4.948,4.948,0,0,1-2.33-3.031,4.953,4.953,0,0,1,.5-3.8,5.014,5.014,0,0,1,3.878-2.479v9.957Zm-66.514-4a5,5,0,0,1-2.5-.669,4.971,4.971,0,0,1-2.328-3.038,4.963,4.963,0,0,1,.5-3.792,5.019,5.019,0,0,1,4.334-2.5,5,5,0,0,1,2.5.673,4.968,4.968,0,0,1,2.328,3.036,4.97,4.97,0,0,1-.5,3.795A5.017,5.017,0,0,1-5835.083,13167.511Zm-66.963-4.019a4.992,4.992,0,0,1-2.493-.67,4.964,4.964,0,0,1-2.329-3.035,4.956,4.956,0,0,1,.5-3.795,5.017,5.017,0,0,1,4.334-2.5,5.007,5.007,0,0,1,2.5.672,5.009,5.009,0,0,1,1.831,6.831A5.018,5.018,0,0,1-5902.046,13163.492Zm-66.959-4.02a4.969,4.969,0,0,1-2.5-.673,4.958,4.958,0,0,1-2.326-3.034,4.969,4.969,0,0,1,.5-3.793,5.029,5.029,0,0,1,4.337-2.5,4.993,4.993,0,0,1,2.494.673,4.95,4.95,0,0,1,2.329,3.035,4.965,4.965,0,0,1-.5,3.8A5.017,5.017,0,0,1-5969.005,13159.473Zm174.9-2.941a4.963,4.963,0,0,1-2.493-.673,4.965,4.965,0,0,1-2.333-3.035,4.957,4.957,0,0,1,.5-3.792,5.018,5.018,0,0,1,4.334-2.5,4.974,4.974,0,0,1,2.493.673,4.974,4.974,0,0,1,2.333,3.036,4.967,4.967,0,0,1-.5,3.795A5.016,5.016,0,0,1-5794.1,13156.531Zm-66.959-4.02a4.966,4.966,0,0,1-2.5-.673,4.959,4.959,0,0,1-2.327-3.035,4.96,4.96,0,0,1,.5-3.792,5.017,5.017,0,0,1,4.334-2.5,5.015,5.015,0,0,1,2.5.672,4.954,4.954,0,0,1,2.326,3.036,4.946,4.946,0,0,1-.5,3.791A5.017,5.017,0,0,1-5861.062,13152.512Zm-66.963-4.02a5,5,0,0,1-2.493-.669,4.99,4.99,0,0,1-2.333-3.036,4.977,4.977,0,0,1,.5-3.795,5.028,5.028,0,0,1,4.337-2.5,5,5,0,0,1,2.5.673,4.954,4.954,0,0,1,2.326,3.035,4.972,4.972,0,0,1-.5,3.795A5.021,5.021,0,0,1-5928.026,13148.492Zm107.943-6.961a5.005,5.005,0,0,1-2.5-.669,5.014,5.014,0,0,1-1.827-6.834,5.015,5.015,0,0,1,4.333-2.5,5.014,5.014,0,0,1,2.5.673,5.007,5.007,0,0,1,1.828,6.83A5.022,5.022,0,0,1-5820.083,13141.531Zm-66.963-4.02a5.038,5.038,0,0,1-2.494-.669,5.008,5.008,0,0,1-1.831-6.833,5.022,5.022,0,0,1,4.334-2.5,5.044,5.044,0,0,1,2.5.669,5,5,0,0,1,2.33,3.039,4.968,4.968,0,0,1-.5,3.792A5.027,5.027,0,0,1-5887.046,13137.512Zm-66.96-4.02h0a5,5,0,0,1-2.493-.672,5,5,0,0,1-1.831-6.827,5.029,5.029,0,0,1,4.337-2.5,4.992,4.992,0,0,1,2.493.673,4.969,4.969,0,0,1,2.329,3.038,4.963,4.963,0,0,1-.5,3.792A5.021,5.021,0,0,1-5954.006,13133.492Zm174.9-2.941a4.955,4.955,0,0,1-2.493-.673,4.968,4.968,0,0,1-2.329-3.036,4.968,4.968,0,0,1,.5-3.794,5.021,5.021,0,0,1,4.334-2.5,5.005,5.005,0,0,1,2.5.669,5.013,5.013,0,0,1,1.831,6.83A5.027,5.027,0,0,1-5779.1,13130.551Zm-66.959-4.02a5,5,0,0,1-2.5-.673,4.952,4.952,0,0,1-2.326-3.035,4.964,4.964,0,0,1,.5-3.792,5.023,5.023,0,0,1,4.337-2.5,4.994,4.994,0,0,1,2.494.67,4.968,4.968,0,0,1,2.329,3.035,4.962,4.962,0,0,1-.5,3.795A5.017,5.017,0,0,1-5846.063,13126.531Zm-66.963-4.019a4.993,4.993,0,0,1-2.494-.673,5.006,5.006,0,0,1-1.831-6.83,5.015,5.015,0,0,1,4.334-2.5,5,5,0,0,1,2.5.673,4.967,4.967,0,0,1,2.326,3.036,4.962,4.962,0,0,1-.5,3.791A5.009,5.009,0,0,1-5913.026,13122.513Zm107.942-6.965h0a4.993,4.993,0,0,1-2.49-.669,4.97,4.97,0,0,1-2.333-3.036,4.987,4.987,0,0,1,.5-3.795,5.027,5.027,0,0,1,4.337-2.5,5.018,5.018,0,0,1,2.5.67,5.011,5.011,0,0,1,1.827,6.834A5.019,5.019,0,0,1-5805.083,13115.548Zm-66.959-4.02a5.005,5.005,0,0,1-2.5-.669,5.01,5.01,0,0,1-1.831-6.832,5.022,5.022,0,0,1,4.337-2.5,4.994,4.994,0,0,1,2.494.67,5.006,5.006,0,0,1,1.831,6.83A5.017,5.017,0,0,1-5872.043,13111.528Zm-66.963-4.016a5.023,5.023,0,0,1-2.5-.67,5.012,5.012,0,0,1-1.828-6.833,5.016,5.016,0,0,1,4.334-2.5,5,5,0,0,1,2.493.669,4.965,4.965,0,0,1,2.33,3.039,4.956,4.956,0,0,1-.5,3.795A5.021,5.021,0,0,1-5939.006,13107.513Zm107.942-6.965a5.005,5.005,0,0,1-2.5-.669,5.007,5.007,0,0,1-1.831-6.83,5.024,5.024,0,0,1,4.334-2.5,4.978,4.978,0,0,1,2.5.672,4.968,4.968,0,0,1,2.328,3.036,4.97,4.97,0,0,1-.5,3.795A5.019,5.019,0,0,1-5831.063,13100.548Zm-66.963-4.016a4.992,4.992,0,0,1-2.493-.673,4.968,4.968,0,0,1-2.329-3.036,4.968,4.968,0,0,1,.5-3.794,5.015,5.015,0,0,1,4.333-2.5,4.958,4.958,0,0,1,2.5.673,4.957,4.957,0,0,1,2.33,3.031,4.982,4.982,0,0,1-.5,3.8A5.029,5.029,0,0,1-5898.026,13096.532Zm40.983-10.983a5,5,0,0,1-2.5-.67,4.964,4.964,0,0,1-2.329-3.035,4.987,4.987,0,0,1,.5-3.795,5.016,5.016,0,0,1,4.334-2.5,5.005,5.005,0,0,1,2.5.669,5.01,5.01,0,0,1,1.831,6.831A5.024,5.024,0,0,1-5857.043,13085.549Zm-66.963-4.02a5.014,5.014,0,0,1-2.5-.669,5.006,5.006,0,0,1-1.827-6.831,5.015,5.015,0,0,1,4.333-2.5,4.994,4.994,0,0,1,2.494.67,4.982,4.982,0,0,1,2.333,3.038,4.967,4.967,0,0,1-.5,3.795A5.02,5.02,0,0,1-5924.006,13081.529Zm40.979-10.978a5,5,0,0,1-2.493-.672,4.953,4.953,0,0,1-2.329-3.036,4.947,4.947,0,0,1,.5-3.795,5.016,5.016,0,0,1,4.334-2.5,5,5,0,0,1,2.5.67,4.964,4.964,0,0,1,2.329,3.035,4.975,4.975,0,0,1-.5,3.795A5.016,5.016,0,0,1-5883.027,13070.552Zm-25.98-15a5,5,0,0,1-2.493-.669,4.957,4.957,0,0,1-2.329-3.039,4.955,4.955,0,0,1,.5-3.791,5.016,5.016,0,0,1,4.334-2.5,5,5,0,0,1,2.493.669,4.987,4.987,0,0,1,2.333,3.035,4.969,4.969,0,0,1-.5,3.795A5.016,5.016,0,0,1-5909.007,13055.549Z" transform="translate(7688.568 -11577)"/><g transform="translate(1543.894 1224.702) rotate(16)"><g class="p" transform="matrix(0.96, -0.28, 0.28, 0.96, -1524.8, 283.57)"><path class="g" d="M3.474,0h26.4a3.474,3.474,0,0,1,3.474,3.474v26.4a3.474,3.474,0,0,1-3.474,3.474H3.474A3.474,3.474,0,0,1,0,29.874V3.474A3.474,3.474,0,0,1,3.474,0Z" transform="translate(1543.89 147.7) rotate(16)"/></g><path class="h" d="M225.144,69.558h2.779a.7.7,0,0,0,.695-.695V64.695a.7.7,0,0,0-.695-.695h-2.779a7.642,7.642,0,0,0-7.642,7.642v3.474h-3.474a.7.7,0,0,0-.695.695v4.169a.7.7,0,0,0,.695.695H217.5V93.18h5.558V80.674h3.474a.7.7,0,0,0,.659-.475l1.389-4.169a.695.695,0,0,0-.659-.914H223.06V71.642A2.084,2.084,0,0,1,225.144,69.558Z" transform="translate(-199.438 -59.831)"/></g><g transform="matrix(0.966, -0.259, 0.259, 0.966, 1634.478, 1310.84)"><g transform="translate(0 96)"><g class="o" transform="matrix(0.97, 0.26, -0.26, 0.97, -1518.26, -744.91)"><path class="i" d="M15.134,108.107v6.053H23.7a9.081,9.081,0,1,1-8.563-12.107,8.946,8.946,0,0,1,5.881,2.191l3.977-4.564A15,15,0,0,0,15.134,96a15.134,15.134,0,1,0,15.134,15.134v-3.027Z" transform="matrix(0.97, -0.26, 0.26, 0.97, 1634.48, 233.84)"/></g></g></g><g transform="translate(1411.723 1453.145) rotate(-23)"><path class="j" d="M582.257,244.808H568.051a10.482,10.482,0,0,0-10.472,10.472v14.207a10.484,10.484,0,0,0,10.472,10.472h14.206a10.486,10.486,0,0,0,10.472-10.472V255.28A10.484,10.484,0,0,0,582.257,244.808Zm6.936,24.679a6.936,6.936,0,0,1-6.936,6.936H568.051a6.936,6.936,0,0,1-6.936-6.936V255.28a6.935,6.935,0,0,1,6.936-6.936h14.206a6.935,6.935,0,0,1,6.936,6.936Z" transform="translate(-557.579 -244.808)"/><path class="k" d="M572.7,250.835a9.091,9.091,0,1,0,9.091,9.091A9.09,9.09,0,0,0,572.7,250.835Zm0,14.64a5.555,5.555,0,1,1,5.555-5.555A5.555,5.555,0,0,1,572.7,265.475Z" transform="translate(-555.122 -242.351)"/><path class="l" d="M577.165,249.336a2.178,2.178,0,1,0,2.178,2.178A2.176,2.176,0,0,0,577.165,249.336Z" transform="translate(-550.482 -242.962)"/></g></g></svg>