<svg xmlns="http://www.w3.org/2000/svg" width="120" height="132.001" viewBox="0 0 120 132.001"><defs><style>.a{fill:#ff6e4e;opacity:0.21;}</style></defs><path class="a" d="M-8088.5,13193a97.817,97.817,0,0,1-39.9-8.449,101.1,101.1,0,0,1-17.41-9.913,104.471,104.471,0,0,1-15.169-13.125,107.158,107.158,0,0,1-12.516-15.908,109.414,109.414,0,0,1-9.451-18.263A111.319,111.319,0,0,1-8191,13085.5a113.094,113.094,0,0,1,2.673-24.5H-8071v130.446A98.948,98.948,0,0,1-8088.5,13193Z" transform="translate(8191 -13061)"/></svg>